<svg width="26" height="25" viewBox="0 0 26 25" fill="none" xmlns="http://www.w3.org/2000/svg">
<path d="M13.0731 6.46289C9.63704 6.46289 6.79004 9.2608 6.79004 12.7459C6.79004 16.231 9.58795 19.0289 13.0731 19.0289C16.5582 19.0289 19.3561 16.182 19.3561 12.7459C19.3561 9.30989 16.5091 6.46289 13.0731 6.46289ZM13.0731 16.771C10.8642 16.771 9.048 14.9548 9.048 12.7459C9.048 10.537 10.8642 8.72085 13.0731 8.72085C15.2819 8.72085 17.0981 10.537 17.0981 12.7459C17.0981 14.9548 15.2819 16.771 13.0731 16.771Z" fill="#F0E8D8"/>
<path d="M19.6012 7.73958C20.3874 7.73958 21.0247 7.10225 21.0247 6.31608C21.0247 5.5299 20.3874 4.89258 19.6012 4.89258C18.8151 4.89258 18.1777 5.5299 18.1777 6.31608C18.1777 7.10225 18.8151 7.73958 19.6012 7.73958Z" fill="#F0E8D8"/>
<path d="M23.2827 2.6346C22.0065 1.30928 20.1903 0.62207 18.1287 0.62207H8.01691C3.74641 0.62207 0.899414 3.46907 0.899414 7.73956V17.8022C0.899414 19.9129 1.58662 21.7291 2.96103 23.0545C4.28636 24.3307 6.05346 24.9688 8.066 24.9688H18.0796C20.1903 24.9688 21.9574 24.2816 23.2336 23.0545C24.5589 21.7782 25.2462 19.962 25.2462 17.8513V7.73956C25.2462 5.67795 24.5589 3.91084 23.2827 2.6346ZM23.0864 17.8513C23.0864 19.373 22.5464 20.6001 21.6629 21.4346C20.7793 22.2691 19.5522 22.7108 18.0796 22.7108H8.066C6.59341 22.7108 5.36626 22.2691 4.4827 21.4346C3.59915 20.5511 3.15738 19.3239 3.15738 17.8022V7.73956C3.15738 6.26698 3.59915 5.03983 4.4827 4.15627C5.31717 3.32181 6.59341 2.88003 8.066 2.88003H18.1777C19.6503 2.88003 20.8775 3.32181 21.761 4.20536C22.5955 5.08891 23.0864 6.31607 23.0864 7.73956V17.8513Z" fill="#F0E8D8"/>
</svg>
