<svg width="31" height="24" viewBox="0 0 31 24" fill="none" xmlns="http://www.w3.org/2000/svg">
<path d="M25.641 2.42738C25.6329 2.41143 25.6195 2.39894 25.6031 2.39214C23.7106 1.51152 21.7135 0.883568 19.6618 0.524001C19.6431 0.520487 19.6239 0.523022 19.6067 0.531247C19.5896 0.539472 19.5755 0.552968 19.5663 0.569816C19.2944 1.0704 19.0475 1.58458 18.8267 2.1104C16.615 1.7699 14.3653 1.7699 12.1537 2.1104C11.9314 1.58325 11.6805 1.06894 11.4024 0.569816C11.3928 0.553335 11.3786 0.540149 11.3616 0.531978C11.3445 0.523806 11.3255 0.521026 11.3068 0.524001C9.25488 0.882813 7.25766 1.51081 5.36544 2.39219C5.34924 2.39915 5.33557 2.41104 5.32632 2.42622C1.54225 8.15749 0.505655 13.7478 1.01417 19.269C1.01561 19.2825 1.0197 19.2956 1.02623 19.3075C1.03275 19.3194 1.04157 19.3298 1.05215 19.3382C3.25558 20.9928 5.72014 22.2558 8.34066 23.0733C8.35911 23.0789 8.37882 23.0787 8.39713 23.0726C8.41544 23.0665 8.43147 23.0549 8.44307 23.0393C9.0059 22.2626 9.50461 21.4401 9.93413 20.5803C9.94003 20.5685 9.9434 20.5556 9.94401 20.5423C9.94463 20.5291 9.94248 20.5159 9.9377 20.5036C9.93292 20.4913 9.92562 20.4802 9.91629 20.4709C9.90695 20.4617 9.89579 20.4545 9.88354 20.45C9.09711 20.1448 8.33576 19.7769 7.60662 19.3498C7.59337 19.3419 7.58225 19.3308 7.57423 19.3175C7.56621 19.3042 7.56154 19.2891 7.56063 19.2736C7.55972 19.258 7.56261 19.2425 7.56903 19.2283C7.57544 19.2142 7.5852 19.2018 7.59744 19.1924C7.75043 19.0762 7.90352 18.9552 8.04961 18.8331C8.06259 18.8222 8.0783 18.8153 8.09496 18.813C8.11163 18.8107 8.12859 18.8132 8.14393 18.8202C12.9208 21.0312 18.0924 21.0312 22.8128 18.8202C22.8282 18.8128 22.8453 18.8099 22.8622 18.812C22.8791 18.8141 22.8951 18.821 22.9083 18.8319C23.0544 18.9541 23.2075 19.0762 23.3616 19.1924C23.3739 19.2017 23.3838 19.214 23.3903 19.2281C23.3968 19.2422 23.3998 19.2577 23.399 19.2733C23.3982 19.2888 23.3936 19.3039 23.3857 19.3173C23.3778 19.3306 23.3668 19.3418 23.3536 19.3498C22.6261 19.7805 21.864 20.1482 21.0756 20.4488C21.0633 20.4536 21.0522 20.4609 21.0429 20.4702C21.0336 20.4796 21.0264 20.4909 21.0217 20.5033C21.017 20.5157 21.015 20.529 21.0157 20.5422C21.0164 20.5555 21.0199 20.5685 21.0259 20.5803C21.4626 21.4353 21.9606 22.2568 22.5158 23.0379C22.5271 23.0539 22.5431 23.066 22.5614 23.0723C22.5798 23.0786 22.5997 23.0789 22.6182 23.0732C25.2435 22.2585 27.7123 20.9953 29.9185 19.3382C29.9293 19.3303 29.9382 19.3201 29.9447 19.3083C29.9513 19.2966 29.9553 19.2836 29.9565 19.2701C30.5653 12.8871 28.9373 7.34259 25.641 2.42738ZM10.6475 15.9072C9.20932 15.9072 8.0243 14.5686 8.0243 12.9247C8.0243 11.2809 9.18634 9.9422 10.6475 9.9422C12.1201 9.9422 13.2937 11.2925 13.2707 12.9246C13.2707 14.5686 12.1086 15.9072 10.6475 15.9072ZM20.3463 15.9072C18.9082 15.9072 17.7232 14.5686 17.7232 12.9247C17.7232 11.2809 18.8852 9.9422 20.3463 9.9422C21.819 9.9422 22.9925 11.2925 22.9695 12.9246C22.9695 14.5686 21.819 15.9072 20.3463 15.9072Z" fill="#F0E8D8"/>
</svg>
