<svg width="31" height="26" viewBox="0 0 31 26" fill="none" xmlns="http://www.w3.org/2000/svg">
<path d="M30.949 3.7538C29.8272 4.26069 28.6199 4.60261 27.3532 4.75562C28.6466 3.96852 29.6383 2.72177 30.106 1.23448C28.8962 1.96427 27.557 2.49382 26.1304 2.7797C24.9888 1.54302 23.3615 0.769775 21.5608 0.769775C18.1037 0.769775 15.3008 3.61905 15.3008 7.1339C15.3008 7.63197 15.3559 8.11745 15.463 8.58404C10.2598 8.31832 5.64617 5.78514 2.55827 1.93467C2.01936 2.87415 1.71088 3.96726 1.71088 5.13468C1.71088 7.34232 2.81596 9.29053 4.49588 10.4315C3.47008 10.3981 2.50438 10.1116 1.66008 9.63497C1.65946 9.66141 1.65946 9.68849 1.65946 9.71557C1.65946 12.7985 3.81759 15.37 6.68188 15.9556C6.15659 16.1005 5.60343 16.1785 5.03231 16.1785C4.62844 16.1785 4.23633 16.1389 3.85414 16.0639C4.65135 18.5921 6.9631 20.4326 9.70226 20.4836C7.55962 22.1907 4.86073 23.2082 1.92706 23.2082C1.42222 23.2082 0.92357 23.178 0.433594 23.1188C3.20496 24.9254 6.49543 25.9782 10.0306 25.9782C21.5466 25.9782 27.8432 16.2812 27.8432 7.87125C27.8432 7.59545 27.8376 7.32028 27.8258 7.047C29.0486 6.15161 30.1103 5.03016 30.949 3.7538Z" fill="#F0E8D8"/>
</svg>
