<svg width="31" height="24" viewBox="0 0 31 24" fill="none" xmlns="http://www.w3.org/2000/svg">
<path d="M25.6554 2.42738C25.6473 2.41143 25.6339 2.39894 25.6175 2.39214C23.725 1.51152 21.7279 0.883568 19.6762 0.524001C19.6575 0.520487 19.6383 0.523022 19.6211 0.531247C19.604 0.539472 19.5899 0.552968 19.5807 0.569816C19.3088 1.0704 19.0619 1.58458 18.8411 2.1104C16.6294 1.7699 14.3797 1.7699 12.1681 2.1104C11.9458 1.58325 11.6949 1.06894 11.4168 0.569816C11.4072 0.553335 11.393 0.540149 11.376 0.531978C11.3589 0.523806 11.3399 0.521026 11.3212 0.524001C9.26929 0.882813 7.27206 1.51081 5.37984 2.39219C5.36364 2.39915 5.34998 2.41104 5.34072 2.42622C1.55666 8.15749 0.520059 13.7478 1.02858 19.269C1.03001 19.2825 1.03411 19.2956 1.04063 19.3075C1.04716 19.3194 1.05597 19.3298 1.06655 19.3382C3.26998 20.9928 5.73454 22.2558 8.35506 23.0733C8.37352 23.0789 8.39322 23.0787 8.41153 23.0726C8.42984 23.0665 8.44587 23.0549 8.45747 23.0393C9.0203 22.2626 9.51901 21.4401 9.94853 20.5803C9.95443 20.5685 9.9578 20.5556 9.95842 20.5423C9.95903 20.5291 9.95688 20.5159 9.9521 20.5036C9.94732 20.4913 9.94002 20.4802 9.93069 20.4709C9.92136 20.4617 9.9102 20.4545 9.89795 20.45C9.11152 20.1448 8.35016 19.7769 7.62102 19.3498C7.60778 19.3419 7.59665 19.3308 7.58863 19.3175C7.58061 19.3042 7.57594 19.2891 7.57504 19.2736C7.57413 19.258 7.57701 19.2425 7.58343 19.2283C7.58985 19.2142 7.59961 19.2018 7.61184 19.1924C7.76483 19.0762 7.91792 18.9552 8.06402 18.8331C8.077 18.8222 8.0927 18.8153 8.10937 18.813C8.12603 18.8107 8.14299 18.8132 8.15834 18.8202C12.9352 21.0312 18.1068 21.0312 22.8272 18.8202C22.8426 18.8128 22.8597 18.8099 22.8766 18.812C22.8935 18.8141 22.9095 18.821 22.9227 18.8319C23.0688 18.9541 23.2219 19.0762 23.376 19.1924C23.3883 19.2017 23.3982 19.214 23.4047 19.2281C23.4112 19.2422 23.4142 19.2577 23.4134 19.2733C23.4126 19.2888 23.408 19.3039 23.4001 19.3173C23.3922 19.3306 23.3812 19.3418 23.368 19.3498C22.6405 19.7805 21.8784 20.1482 21.09 20.4488C21.0777 20.4536 21.0666 20.4609 21.0573 20.4702C21.048 20.4796 21.0408 20.4909 21.0361 20.5033C21.0315 20.5157 21.0294 20.529 21.0301 20.5422C21.0308 20.5555 21.0343 20.5685 21.0403 20.5803C21.477 21.4353 21.975 22.2568 22.5302 23.0379C22.5415 23.0539 22.5575 23.066 22.5758 23.0723C22.5942 23.0786 22.6141 23.0789 22.6326 23.0732C25.2579 22.2585 27.7267 20.9953 29.9329 19.3382C29.9437 19.3303 29.9526 19.3201 29.9592 19.3083C29.9657 19.2966 29.9697 19.2836 29.9709 19.2701C30.5797 12.8871 28.9517 7.34259 25.6554 2.42738ZM10.6619 15.9072C9.22373 15.9072 8.0387 14.5686 8.0387 12.9247C8.0387 11.2809 9.20074 9.9422 10.6619 9.9422C12.1345 9.9422 13.3081 11.2925 13.2851 12.9246C13.2851 14.5686 12.123 15.9072 10.6619 15.9072ZM20.3607 15.9072C18.9226 15.9072 17.7376 14.5686 17.7376 12.9247C17.7376 11.2809 18.8996 9.9422 20.3607 9.9422C21.8334 9.9422 23.0069 11.2925 22.9839 12.9246C22.9839 14.5686 21.8334 15.9072 20.3607 15.9072Z" fill="#F0E8D8"/>
</svg>
