<svg width="17" height="17" viewBox="0 0 17 17" fill="none" xmlns="http://www.w3.org/2000/svg">
<path d="M12.7783 9.59795C12.4808 9.88837 12.3108 10.3063 12.3533 10.7525C12.417 11.5175 13.1183 12.0771 13.8833 12.0771H15.2291V12.92C15.2291 14.3863 14.032 15.5834 12.5658 15.5834H4.43409C2.96784 15.5834 1.77075 14.3863 1.77075 12.92V8.15296C1.77075 6.68671 2.96784 5.48962 4.43409 5.48962H12.5658C14.032 5.48962 15.2291 6.68671 15.2291 8.15296V9.17297H13.7983C13.4016 9.17297 13.0403 9.32878 12.7783 9.59795Z" stroke="white" stroke-width="1.5" stroke-linecap="round" stroke-linejoin="round"/>
<path d="M1.77075 8.79042V5.55338C1.77075 4.71046 2.28784 3.9596 3.07409 3.6621L8.69825 1.5371C9.57659 1.20418 10.5187 1.85587 10.5187 2.79795V5.48961" stroke="white" stroke-width="1.5" stroke-linecap="round" stroke-linejoin="round"/>
<path d="M15.9791 9.89551V11.3547C15.9791 11.7443 15.6674 12.063 15.2707 12.0772H13.8824C13.1174 12.0772 12.4162 11.5176 12.3524 10.7526C12.3099 10.3064 12.4799 9.88843 12.7774 9.59802C13.0395 9.32885 13.4007 9.17303 13.7974 9.17303H15.2707C15.6674 9.1872 15.9791 9.50592 15.9791 9.89551Z" stroke="white" stroke-width="1.5" stroke-linecap="round" stroke-linejoin="round"/>
<path d="M4.95825 8.5H9.91659" stroke="white" stroke-width="1.5" stroke-linecap="round" stroke-linejoin="round"/>
</svg>
