<svg width="19" height="17" viewBox="0 0 19 17" fill="none" xmlns="http://www.w3.org/2000/svg">
<path d="M16.109 1.43577C16.1038 1.42375 16.095 1.41433 16.0844 1.40921C14.8525 0.745469 13.5525 0.272172 12.2169 0.00116092C12.2048 -0.00148816 12.1923 0.000422921 12.1811 0.00662237C12.17 0.0128218 12.1608 0.022994 12.1548 0.0356923C11.9778 0.41299 11.8171 0.800538 11.6733 1.19686C10.2337 0.940217 8.76928 0.940217 7.32963 1.19686C7.18492 0.799532 7.02165 0.411888 6.84057 0.0356923C6.83436 0.02327 6.82511 0.013332 6.81402 0.00717287C6.80293 0.00101369 6.79052 -0.00108127 6.7784 0.00116092C5.4427 0.271603 4.14263 0.744935 2.91092 1.40924C2.90037 1.41449 2.89147 1.42346 2.88545 1.4349C0.422262 5.75465 -0.252499 9.9682 0.0785162 14.1296C0.0794474 14.1398 0.0821156 14.1496 0.0863622 14.1586C0.0906088 14.1676 0.0963471 14.1754 0.103236 14.1817C1.53753 15.4289 3.1418 16.3808 4.8476 16.997C4.85961 17.0012 4.87244 17.001 4.88436 16.9964C4.89627 16.9918 4.90671 16.9831 4.91426 16.9713C5.28063 16.3859 5.60526 15.766 5.88485 15.1179C5.88869 15.109 5.89088 15.0993 5.89128 15.0893C5.89168 15.0794 5.89028 15.0694 5.88717 15.0601C5.88406 15.0509 5.87931 15.0425 5.87323 15.0355C5.86716 15.0285 5.85989 15.0231 5.85192 15.0197C5.34 14.7897 4.84441 14.5124 4.36978 14.1905C4.36116 14.1845 4.35392 14.1762 4.3487 14.1661C4.34348 14.1561 4.34044 14.1448 4.33985 14.133C4.33926 14.1213 4.34114 14.1096 4.34531 14.0989C4.34949 14.0883 4.35584 14.079 4.36381 14.0719C4.4634 13.9842 4.56305 13.8931 4.65815 13.801C4.66659 13.7929 4.67682 13.7876 4.68767 13.7859C4.69851 13.7842 4.70955 13.7861 4.71954 13.7913C7.82899 15.4578 11.1954 15.4578 14.268 13.7913C14.2781 13.7857 14.2892 13.7836 14.3002 13.7852C14.3112 13.7867 14.3216 13.7919 14.3302 13.8002C14.4253 13.8922 14.525 13.9842 14.6253 14.0719C14.6333 14.0789 14.6397 14.0881 14.644 14.0988C14.6482 14.1094 14.6501 14.1211 14.6496 14.1328C14.6491 14.1445 14.6461 14.1559 14.641 14.166C14.6358 14.176 14.6286 14.1844 14.6201 14.1905C14.1465 14.5151 13.6505 14.7922 13.1372 15.0188C13.1292 15.0224 13.122 15.0279 13.116 15.035C13.1099 15.0421 13.1052 15.0505 13.1022 15.0599C13.0991 15.0692 13.0978 15.0792 13.0983 15.0892C13.0987 15.0992 13.101 15.109 13.1049 15.1179C13.3892 15.7624 13.7133 16.3815 14.0747 16.9703C14.0821 16.9824 14.0925 16.9914 14.1044 16.9962C14.1164 17.001 14.1293 17.0012 14.1414 16.9968C15.8503 16.3828 17.4573 15.4308 18.8934 14.1817C18.9004 14.1758 18.9062 14.1681 18.9105 14.1592C18.9148 14.1504 18.9174 14.1406 18.9181 14.1304C19.3144 9.31946 18.2547 5.14045 16.109 1.43577ZM6.34922 11.5957C5.41304 11.5957 4.64167 10.5868 4.64167 9.34781C4.64167 8.10878 5.39808 7.09982 6.34922 7.09982C7.30778 7.09982 8.0717 8.11755 8.05674 9.34773C8.05674 10.5868 7.30029 11.5957 6.34922 11.5957ZM12.6625 11.5957C11.7264 11.5957 10.955 10.5868 10.955 9.34781C10.955 8.10878 11.7114 7.09982 12.6625 7.09982C13.6212 7.09982 14.385 8.11755 14.3701 9.34773C14.3701 10.5868 13.6212 11.5957 12.6625 11.5957Z" fill="white"/>
</svg>
