<svg width="31" height="26" viewBox="0 0 31 26" fill="none" xmlns="http://www.w3.org/2000/svg">
<path d="M30.53 3.1852C29.4082 3.69209 28.2009 4.034 26.9341 4.18701C28.2275 3.39992 29.2192 2.15316 29.6869 0.665872C28.4771 1.39567 27.1379 1.92522 25.7113 2.21109C24.5697 0.974412 22.9424 0.201172 21.1417 0.201172C17.6846 0.201172 14.8817 3.05045 14.8817 6.5653C14.8817 7.06337 14.9368 7.54885 15.044 8.01544C9.84069 7.74971 5.22711 5.21653 2.1392 1.36607C1.60029 2.30554 1.29181 3.39866 1.29181 4.56608C1.29181 6.77372 2.39689 8.72193 4.07681 9.8629C3.05102 9.82953 2.08531 9.54303 1.24102 9.06636C1.2404 9.09281 1.2404 9.11989 1.2404 9.14696C1.2404 12.2299 3.39852 14.8014 6.26281 15.387C5.73752 15.5319 5.18437 15.6099 4.61324 15.6099C4.20937 15.6099 3.81726 15.5703 3.43507 15.4953C4.23229 18.0235 6.54404 19.864 9.2832 19.915C7.14056 21.6221 4.44166 22.6396 1.50799 22.6396C1.00315 22.6396 0.504503 22.6094 0.0145264 22.5502C2.7859 24.3568 6.07636 25.4096 9.6115 25.4096C21.1275 25.4096 27.4241 15.7126 27.4241 7.30264C27.4241 7.02685 27.4185 6.75168 27.4067 6.4784C28.6295 5.583 29.6912 4.46155 30.53 3.1852Z" fill="#F0E8D8"/>
</svg>
