<svg width="45" height="45" viewBox="0 0 45 45" fill="none" xmlns="http://www.w3.org/2000/svg">
<path d="M31.8484 1.1164C33.6621 -0.405625 36.3904 1.14996 36.0044 3.48593L33.557 18.2952C33.4356 19.0297 33.6412 19.7805 34.1197 20.3506L43.7688 31.8484C45.2909 33.6621 43.7353 36.3904 41.3993 36.0044L26.59 33.557C25.8556 33.4356 25.1048 33.6412 24.5346 34.1197L13.0368 43.7688C11.2232 45.2909 8.49483 43.7353 8.88087 41.3993L11.3282 26.59C11.4496 25.8556 11.2441 25.1048 10.7655 24.5346L1.1164 13.0368C-0.405624 11.2232 1.14996 8.49483 3.48593 8.88087L18.2952 11.3282C19.0297 11.4496 19.7805 11.2441 20.3506 10.7655L31.8484 1.1164Z" fill="white"/>
</svg>
