<svg width="201" height="44" viewBox="0 0 201 44" fill="none" xmlns="http://www.w3.org/2000/svg">
<path fill-rule="evenodd" clip-rule="evenodd" d="M34.2631 15.7051C34.9259 15.0423 35.92 15.0423 36.5828 16.0365L42.2164 27.3037C42.5478 27.9665 42.2164 28.6292 41.5536 28.9606L24.3214 37.5767C23.3273 38.2395 22.0017 36.9139 22.6645 35.9198C24.3214 32.2745 26.3098 27.9665 27.9667 24.984C29.6236 22.0015 31.9434 18.6876 34.2631 15.7051Z" fill="white"/>
<path fill-rule="evenodd" clip-rule="evenodd" d="M33.6001 12.06C33.9315 11.7286 33.9315 11.0658 33.6001 10.7344L28.6293 0.792782C28.2979 0.130005 27.6351 -0.201383 26.9723 0.130005L16.3679 5.43222C16.0365 5.76361 15.7051 6.095 15.7051 6.75778C15.7051 11.3972 15.7051 17.0308 15.0423 21.6703C14.3796 26.9725 12.7226 33.9316 11.3971 38.5711C11.2482 39.038 11.2482 39.038 11.3971 39.5652L12.7226 42.2163C13.054 42.8791 13.7168 43.2105 14.3796 42.8791L16.3679 41.8849C16.762 41.6847 16.9826 41.4641 17.0307 41.2222C19.019 36.2513 22.3329 28.6294 25.6468 23.6586C27.6351 20.0133 30.949 15.3739 33.6001 12.06Z" fill="#FF006C"/>
<path fill-rule="evenodd" clip-rule="evenodd" d="M12.7228 21.0078C12.3914 24.3217 11.3972 27.967 10.7344 31.2808C10.403 32.275 8.7461 32.6064 8.41472 31.6122L0.130005 14.7114C-0.201383 14.0486 0.130005 13.3859 0.792782 13.0545L11.3972 7.75227C12.3914 7.42088 13.3855 8.08366 13.3855 8.74643C13.0542 13.0545 13.0542 17.3625 12.7228 21.0078Z" fill="white"/>
<path d="M65.2621 16.2503C66.2801 16.2503 67.1256 16.4488 67.7986 16.8456C68.4888 17.2425 69.041 17.7602 69.4551 18.3986C69.8692 19.0371 70.1626 19.7618 70.3351 20.5728C70.5077 21.3838 70.5939 22.212 70.5939 23.0575C70.5939 23.903 70.5077 24.7399 70.3351 25.5682C70.1626 26.3792 69.8692 27.1039 69.4551 27.7423C69.041 28.3808 68.4888 28.8984 67.7986 29.2953C67.1256 29.6749 66.2801 29.8647 65.2621 29.8647H61.6126V16.2503H65.2621ZM66.7374 33.2812C67.997 33.2812 69.11 32.9879 70.0763 32.4012C71.0426 31.7973 71.8536 31.0122 72.5093 30.0459C73.1822 29.0796 73.6913 27.9925 74.0364 26.7847C74.3815 25.5595 74.554 24.3172 74.554 23.0575C74.554 21.8152 74.3815 20.5814 74.0364 19.3563C73.6913 18.1312 73.1822 17.0441 72.5093 16.095C71.8536 15.1288 71.034 14.3523 70.0504 13.7656C69.0841 13.1617 67.9798 12.8597 66.7374 12.8597H59.6973C59.2831 12.8597 58.938 12.9373 58.662 13.0926C58.4031 13.2307 58.1961 13.4119 58.0408 13.6362C57.8855 13.8432 57.7819 14.0676 57.7302 14.3091C57.6784 14.5334 57.6525 14.7233 57.6525 14.8786V31.2365C57.6525 31.5989 57.7129 31.9095 57.8337 32.1683C57.9545 32.4271 58.1098 32.6428 58.2996 32.8154C58.5067 32.9707 58.731 33.0914 58.9725 33.1777C59.2141 33.2467 59.4557 33.2812 59.6973 33.2812H66.7374ZM87.9549 26.9141C88.3862 26.9141 88.7141 26.7156 88.9384 26.3188C89.1627 25.9219 89.2749 25.4215 89.2749 24.8176C89.2749 24.1791 89.1455 23.4803 88.8866 22.7211C88.6278 21.9618 88.2223 21.2544 87.6701 20.5987C87.1352 19.943 86.445 19.3994 85.5995 18.968C84.7713 18.5194 83.7791 18.2951 82.623 18.2951C81.4324 18.2951 80.3971 18.5021 79.5171 18.9163C78.637 19.3304 77.9037 19.8912 77.317 20.5987C76.7303 21.2889 76.2903 22.0999 75.997 23.0316C75.7209 23.9462 75.5829 24.9211 75.5829 25.9564C75.5829 26.9917 75.7382 27.9753 76.0488 28.9071C76.3766 29.8216 76.8425 30.6326 77.4464 31.34C78.0676 32.0302 78.8268 32.5824 79.7241 32.9965C80.6214 33.4107 81.6394 33.6177 82.7783 33.6177C83.7791 33.6177 84.6419 33.4711 85.3666 33.1777C86.0913 32.8671 86.6952 32.5134 87.1784 32.1165C87.6615 31.7024 88.0152 31.2969 88.2396 30.9C88.4811 30.4859 88.6019 30.1667 88.6019 29.9424C88.6019 29.718 88.5502 29.5024 88.4466 29.2953C88.3431 29.071 88.2137 28.8725 88.0584 28.7C87.9031 28.5274 87.7219 28.3894 87.5148 28.2859C87.3078 28.1823 87.1007 28.1306 86.8937 28.1306C86.5658 28.1306 86.2725 28.2859 86.0136 28.5965C85.7203 28.9416 85.4528 29.2435 85.2113 29.5024C84.987 29.7439 84.754 29.9424 84.5124 30.0977C84.2709 30.253 84.012 30.3737 83.736 30.46C83.4599 30.529 83.1406 30.5636 82.7783 30.5636C82.1744 30.5636 81.6394 30.46 81.1736 30.253C80.7249 30.0459 80.3453 29.7871 80.0347 29.4765C79.7241 29.1659 79.4912 28.8467 79.3359 28.5188C79.1806 28.1737 79.1029 27.8717 79.1029 27.6129C79.1029 27.4058 79.1461 27.2419 79.2323 27.1211C79.3359 26.9831 79.4825 26.9141 79.6723 26.9141H87.9549ZM82.623 21.3493C83.1924 21.3493 83.6842 21.4442 84.0983 21.634C84.5124 21.8238 84.8489 22.0567 85.1077 22.3328C85.3838 22.5916 85.5823 22.8677 85.703 23.1611C85.8411 23.4544 85.9101 23.7132 85.9101 23.9375C85.9101 24.2654 85.798 24.4293 85.5736 24.4293H79.6723C79.4135 24.4293 79.2841 24.2568 79.2841 23.9117C79.2841 23.6873 79.3531 23.4285 79.4912 23.1352C79.6292 22.8418 79.8276 22.5658 80.0865 22.3069C80.3626 22.0308 80.7077 21.8065 81.1218 21.634C81.5532 21.4442 82.0536 21.3493 82.623 21.3493ZM103.001 28.3894C103.001 27.5784 102.777 26.9313 102.329 26.4482C101.897 25.9478 101.354 25.5509 100.698 25.2576C100.042 24.947 99.3347 24.7054 98.5755 24.5329C97.8163 24.343 97.1088 24.1705 96.4531 24.0152C95.7974 23.8426 95.2453 23.6442 94.7966 23.4199C94.3652 23.1956 94.1495 22.8763 94.1495 22.4622C94.1495 21.9618 94.3739 21.5995 94.8225 21.3751C95.2711 21.1336 95.8319 21.0128 96.5049 21.0128C96.8155 21.0128 97.1261 21.0473 97.4367 21.1163C97.7645 21.1853 98.0665 21.2975 98.3426 21.4528C98.6359 21.5908 98.8947 21.772 99.1191 21.9963C99.3606 22.2207 99.5504 22.4967 99.6885 22.8246C99.7748 23.0662 99.9128 23.2387 100.103 23.3422C100.292 23.4285 100.491 23.4717 100.698 23.4717C100.888 23.4717 101.078 23.4371 101.267 23.3681C101.474 23.2818 101.656 23.1783 101.811 23.0575C101.983 22.9195 102.121 22.7556 102.225 22.5658C102.329 22.3759 102.38 22.1689 102.38 21.9446C102.38 21.5822 102.234 21.194 101.94 20.7798C101.664 20.3485 101.267 19.9516 100.75 19.5892C100.249 19.2269 99.6367 18.9249 98.912 18.6833C98.1873 18.4245 97.3849 18.2951 96.5049 18.2951C95.6421 18.2951 94.857 18.4072 94.1495 18.6316C93.4421 18.8559 92.8295 19.1665 92.3119 19.5633C91.8115 19.9602 91.4232 20.4434 91.1471 21.0128C90.8711 21.5822 90.733 22.2034 90.733 22.8763C90.733 23.7219 90.9487 24.3948 91.3801 24.8952C91.8115 25.3956 92.3464 25.8011 92.9848 26.1117C93.6233 26.4223 94.3221 26.6725 95.0813 26.8623C95.8406 27.0349 96.5394 27.216 97.1778 27.4058C97.8163 27.5784 98.3512 27.7941 98.7826 28.0529C99.214 28.3117 99.4296 28.6741 99.4296 29.14C99.4296 29.4333 99.352 29.6922 99.1967 29.9165C99.0587 30.1235 98.8689 30.3047 98.6273 30.46C98.403 30.5981 98.1441 30.7102 97.8508 30.7965C97.5575 30.8655 97.2641 30.9 96.9708 30.9C96.0735 30.9 95.3488 30.6757 94.7966 30.2271C94.2445 29.7784 93.8217 29.1918 93.5284 28.467C93.4248 28.2082 93.2523 28.0184 93.0107 27.8976C92.7691 27.7768 92.5017 27.7164 92.2083 27.7164C91.777 27.7164 91.3715 27.8372 90.9918 28.0788C90.6295 28.3204 90.4483 28.6396 90.4483 29.0365C90.4483 29.5024 90.5863 30.0114 90.8624 30.5636C91.1558 31.0985 91.5785 31.5902 92.1307 32.0389C92.6829 32.4875 93.3644 32.8671 94.1754 33.1777C94.9864 33.4711 95.9182 33.6177 96.9708 33.6177C97.799 33.6177 98.5755 33.5056 99.3002 33.2812C100.042 33.0569 100.681 32.7291 101.216 32.2977C101.768 31.8491 102.199 31.3055 102.51 30.6671C102.838 30.0114 103.001 29.2522 103.001 28.3894ZM104.506 14.7233C104.506 15.2409 104.687 15.6809 105.05 16.0433C105.429 16.4056 105.869 16.5868 106.37 16.5868C106.887 16.5868 107.327 16.4056 107.69 16.0433C108.069 15.6809 108.259 15.2409 108.259 14.7233C108.259 14.2056 108.069 13.7656 107.69 13.4032C107.327 13.0409 106.887 12.8597 106.37 12.8597C105.869 12.8597 105.429 13.0409 105.05 13.4032C104.687 13.7656 104.506 14.2056 104.506 14.7233ZM108.259 20.521C108.259 20.0034 108.069 19.5633 107.69 19.201C107.327 18.8214 106.887 18.6316 106.37 18.6316C105.869 18.6316 105.429 18.8214 105.05 19.201C104.687 19.5633 104.506 20.0034 104.506 20.521V31.4177C104.506 31.9181 104.687 32.3581 105.05 32.7377C105.412 33.1001 105.852 33.2812 106.37 33.2812C106.887 33.2812 107.327 33.1001 107.69 32.7377C108.069 32.3754 108.259 31.9353 108.259 31.4177V20.521ZM120.708 25.4388C120.708 26.0082 120.605 26.5431 120.398 27.0435C120.208 27.5266 119.941 27.958 119.595 28.3376C119.25 28.7 118.836 28.9933 118.353 29.2176C117.887 29.4247 117.378 29.5282 116.826 29.5282C116.274 29.5282 115.756 29.4333 115.273 29.2435C114.807 29.0537 114.402 28.7863 114.056 28.4412C113.711 28.0788 113.435 27.6474 113.228 27.147C113.038 26.6294 112.944 26.0599 112.944 25.4388C112.944 24.8176 113.038 24.2568 113.228 23.7564C113.435 23.2387 113.711 22.8073 114.056 22.4622C114.402 22.0999 114.807 21.8238 115.273 21.634C115.756 21.4442 116.274 21.3493 116.826 21.3493C117.395 21.3493 117.913 21.47 118.379 21.7116C118.862 21.9359 119.276 22.2379 119.621 22.6175C119.966 22.9971 120.234 23.4371 120.424 23.9375C120.613 24.4207 120.708 24.9211 120.708 25.4388ZM120.527 20.1587C120.441 20.0724 120.294 19.9257 120.087 19.7186C119.88 19.5116 119.613 19.3045 119.285 19.0975C118.974 18.8904 118.586 18.7092 118.12 18.5539C117.654 18.3814 117.119 18.2951 116.515 18.2951C115.497 18.2951 114.557 18.4849 113.694 18.8645C112.849 19.2441 112.124 19.7618 111.52 20.4175C110.916 21.0732 110.442 21.8324 110.096 22.6952C109.769 23.5579 109.605 24.4725 109.605 25.4388C109.605 26.405 109.769 27.3282 110.096 28.2082C110.442 29.071 110.916 29.8302 111.52 30.4859C112.124 31.1416 112.849 31.6593 113.694 32.0389C114.557 32.4185 115.497 32.6083 116.515 32.6083C117.137 32.6083 117.671 32.5565 118.12 32.453C118.569 32.3322 118.948 32.1855 119.259 32.013C119.57 31.8404 119.82 31.6593 120.01 31.4695C120.217 31.2624 120.389 31.064 120.527 30.8741V31.78C120.527 32.2977 120.493 32.7895 120.424 33.2554C120.355 33.7213 120.199 34.1268 119.958 34.4719C119.716 34.8342 119.362 35.1189 118.897 35.326C118.431 35.5503 117.809 35.6625 117.033 35.6625C116.257 35.6625 115.661 35.5503 115.247 35.326C114.85 35.1017 114.522 34.8515 114.264 34.5754C114.005 34.3166 113.763 34.075 113.539 33.8507C113.332 33.6264 113.03 33.5142 112.633 33.5142C112.202 33.5142 111.822 33.6695 111.494 33.9801C111.183 34.3079 111.028 34.7048 111.028 35.1707C111.028 35.5331 111.14 35.8868 111.365 36.2319C111.71 36.7496 112.081 37.1723 112.478 37.5002C112.892 37.828 113.332 38.0782 113.798 38.2508C114.281 38.4406 114.79 38.57 115.325 38.639C115.86 38.708 116.429 38.7425 117.033 38.7425C117.879 38.7425 118.715 38.6217 119.544 38.3802C120.372 38.1559 121.105 37.8107 121.744 37.3449C122.399 36.8962 122.926 36.3268 123.323 35.6366C123.737 34.9636 123.944 34.1785 123.944 33.2812V20.1587C123.944 19.6928 123.771 19.2959 123.426 18.968C123.098 18.6402 122.701 18.4763 122.235 18.4763C121.77 18.4763 121.364 18.6229 121.019 18.9163C120.691 19.1924 120.527 19.6065 120.527 20.1587ZM138.911 22.8763C138.911 22.1861 138.782 21.565 138.523 21.0128C138.281 20.4434 137.936 19.9602 137.488 19.5633C137.056 19.1665 136.547 18.8559 135.961 18.6316C135.374 18.4072 134.753 18.2951 134.097 18.2951C133.51 18.2951 132.984 18.3641 132.518 18.5021C132.052 18.6229 131.638 18.7782 131.276 18.968C130.913 19.1406 130.603 19.339 130.344 19.5633C130.085 19.7877 129.878 19.9861 129.723 20.1587C129.723 19.6583 129.542 19.2269 129.179 18.8645C128.817 18.4849 128.377 18.2951 127.859 18.2951C127.342 18.2951 126.893 18.4849 126.513 18.8645C126.151 19.2269 125.97 19.6583 125.97 20.1587V31.4177C125.97 31.9181 126.151 32.3581 126.513 32.7377C126.893 33.1001 127.342 33.2812 127.859 33.2812C128.377 33.2812 128.817 33.1001 129.179 32.7377C129.542 32.3581 129.723 31.9181 129.723 31.4177V24.1187C129.723 23.7391 129.792 23.3854 129.93 23.0575C130.085 22.7297 130.284 22.445 130.525 22.2034C130.767 21.9618 131.052 21.772 131.379 21.634C131.724 21.4787 132.078 21.401 132.441 21.401C132.82 21.401 133.174 21.4787 133.502 21.634C133.83 21.772 134.114 21.9618 134.356 22.2034C134.597 22.445 134.787 22.7297 134.925 23.0575C135.081 23.3854 135.158 23.7391 135.158 24.1187V31.4177C135.158 31.9181 135.339 32.3581 135.702 32.7377C136.081 33.1001 136.53 33.2812 137.048 33.2812C137.565 33.2812 138.005 33.1001 138.368 32.7377C138.73 32.3581 138.911 31.9181 138.911 31.4177V22.8763Z" fill="#FF006C"/>
<path d="M152.374 19.3822L154.936 31.0553C155.074 31.6938 155.359 32.2287 155.79 32.6601C156.222 33.0742 156.765 33.2812 157.421 33.2812C158.076 33.2812 158.611 33.0656 159.025 32.6342C159.44 32.2028 159.733 31.6765 159.905 31.0553L164.461 14.8527C164.495 14.6801 164.513 14.5507 164.513 14.4644C164.513 14.0503 164.349 13.6793 164.021 13.3515C163.71 13.0236 163.331 12.8597 162.882 12.8597C162.295 12.8597 161.795 13.0322 161.381 13.3773C160.967 13.7052 160.691 14.1538 160.553 14.7233L157.421 27.4835L154.677 14.7233C154.556 14.1538 154.289 13.7052 153.875 13.3773C153.461 13.0322 152.96 12.8597 152.374 12.8597C151.787 12.8597 151.287 13.0322 150.872 13.3773C150.458 13.7052 150.191 14.1538 150.07 14.7233L147.326 27.4835L144.195 14.7233C144.057 14.1538 143.78 13.7052 143.366 13.3773C142.952 13.0322 142.452 12.8597 141.865 12.8597C141.434 12.8597 141.054 13.0236 140.726 13.3515C140.398 13.6793 140.235 14.0589 140.235 14.4903C140.235 14.5593 140.252 14.6801 140.286 14.8527L144.842 31.0553C145.014 31.6765 145.308 32.2028 145.722 32.6342C146.136 33.0656 146.671 33.2812 147.326 33.2812C147.982 33.2812 148.526 33.0742 148.957 32.6601C149.388 32.2287 149.673 31.6938 149.811 31.0553L152.374 19.3822ZM167.849 23.6011C168.298 23.6011 168.643 23.532 168.885 23.394C169.126 23.256 169.316 23.0834 169.454 22.8763C169.609 22.6693 169.739 22.445 169.842 22.2034C169.946 21.9446 170.075 21.7116 170.231 21.5046C170.403 21.2975 170.627 21.1249 170.903 20.9869C171.18 20.8489 171.568 20.7798 172.068 20.7798C172.448 20.7798 172.81 20.8144 173.155 20.8834C173.5 20.9524 173.802 21.0559 174.061 21.194C174.32 21.3148 174.518 21.4787 174.656 21.6857C174.812 21.8755 174.889 22.0999 174.889 22.3587C174.889 22.9109 174.648 23.3164 174.165 23.5752C173.699 23.8168 173.112 24.0066 172.405 24.1446C171.697 24.2827 170.929 24.4207 170.101 24.5587C169.29 24.6968 168.531 24.9211 167.823 25.2317C167.116 25.5423 166.521 25.9995 166.038 26.6035C165.572 27.2074 165.339 28.0443 165.339 29.1141C165.339 29.8043 165.485 30.4083 165.779 30.9259C166.072 31.4436 166.452 31.8836 166.918 32.2459C167.401 32.591 167.936 32.8499 168.522 33.0224C169.126 33.195 169.721 33.2812 170.308 33.2812C171.223 33.2812 172.042 33.1691 172.767 32.9448C173.492 32.7205 174.182 32.2977 174.838 31.6765C174.889 32.1424 175.079 32.5306 175.407 32.8412C175.752 33.1346 176.158 33.2812 176.624 33.2812C177.124 33.2812 177.547 33.1087 177.892 32.7636C178.237 32.4185 178.41 31.9957 178.41 31.4953V22.2552C178.41 21.565 178.254 20.9783 177.944 20.4951C177.65 19.9947 177.228 19.5806 176.675 19.2528C176.14 18.9249 175.502 18.6833 174.76 18.528C174.018 18.3727 173.207 18.2951 172.327 18.2951C171.395 18.2951 170.558 18.39 169.816 18.5798C169.074 18.7696 168.445 19.0371 167.927 19.3822C167.409 19.71 167.012 20.1069 166.736 20.5728C166.46 21.0387 166.322 21.5477 166.322 22.0999C166.322 22.6693 166.469 23.0662 166.762 23.2905C167.073 23.4975 167.435 23.6011 167.849 23.6011ZM174.838 26.0341V28.5447C174.838 28.8898 174.734 29.2004 174.527 29.4765C174.337 29.7353 174.078 29.9596 173.751 30.1494C173.44 30.322 173.078 30.46 172.664 30.5636C172.267 30.6498 171.87 30.693 171.473 30.693C171.007 30.693 170.61 30.6412 170.282 30.5377C169.972 30.4341 169.721 30.2961 169.532 30.1235C169.342 29.9337 169.204 29.7267 169.118 29.5024C169.049 29.278 169.014 29.0451 169.014 28.8035C169.014 27.8372 169.644 27.2419 170.903 27.0176C171.939 26.8278 172.758 26.638 173.362 26.4482C173.984 26.2584 174.475 26.1203 174.838 26.0341ZM184.374 14.7233C184.374 14.2056 184.184 13.7656 183.805 13.4032C183.443 13.0409 183.002 12.8597 182.485 12.8597C181.984 12.8597 181.544 13.0409 181.165 13.4032C180.802 13.7656 180.621 14.2056 180.621 14.7233V31.4177C180.621 31.9181 180.802 32.3581 181.165 32.7377C181.527 33.1001 181.967 33.2812 182.485 33.2812C183.002 33.2812 183.443 33.1001 183.805 32.7377C184.184 32.3754 184.374 31.9353 184.374 31.4177V14.7233ZM188.601 23.6011C189.05 23.6011 189.395 23.532 189.636 23.394C189.878 23.256 190.068 23.0834 190.206 22.8763C190.361 22.6693 190.491 22.445 190.594 22.2034C190.698 21.9446 190.827 21.7116 190.982 21.5046C191.155 21.2975 191.379 21.1249 191.655 20.9869C191.931 20.8489 192.32 20.7798 192.82 20.7798C193.2 20.7798 193.562 20.8144 193.907 20.8834C194.252 20.9524 194.554 21.0559 194.813 21.194C195.072 21.3148 195.27 21.4787 195.408 21.6857C195.564 21.8755 195.641 22.0999 195.641 22.3587C195.641 22.9109 195.4 23.3164 194.916 23.5752C194.451 23.8168 193.864 24.0066 193.156 24.1446C192.449 24.2827 191.681 24.4207 190.853 24.5587C190.042 24.6968 189.283 24.9211 188.575 25.2317C187.868 25.5423 187.272 25.9995 186.789 26.6035C186.323 27.2074 186.09 28.0443 186.09 29.1141C186.09 29.8043 186.237 30.4083 186.53 30.9259C186.824 31.4436 187.203 31.8836 187.669 32.2459C188.152 32.591 188.687 32.8499 189.274 33.0224C189.878 33.195 190.473 33.2812 191.06 33.2812C191.974 33.2812 192.794 33.1691 193.519 32.9448C194.244 32.7205 194.934 32.2977 195.589 31.6765C195.641 32.1424 195.831 32.5306 196.159 32.8412C196.504 33.1346 196.909 33.2812 197.375 33.2812C197.876 33.2812 198.299 33.1087 198.644 32.7636C198.989 32.4185 199.161 31.9957 199.161 31.4953V22.2552C199.161 21.565 199.006 20.9783 198.695 20.4951C198.402 19.9947 197.979 19.5806 197.427 19.2528C196.892 18.9249 196.254 18.6833 195.512 18.528C194.77 18.3727 193.959 18.2951 193.079 18.2951C192.147 18.2951 191.31 18.39 190.568 18.5798C189.826 18.7696 189.196 19.0371 188.679 19.3822C188.161 19.71 187.764 20.1069 187.488 20.5728C187.212 21.0387 187.074 21.5477 187.074 22.0999C187.074 22.6693 187.221 23.0662 187.514 23.2905C187.825 23.4975 188.187 23.6011 188.601 23.6011ZM195.589 26.0341V28.5447C195.589 28.8898 195.486 29.2004 195.279 29.4765C195.089 29.7353 194.83 29.9596 194.502 30.1494C194.192 30.322 193.829 30.46 193.415 30.5636C193.018 30.6498 192.622 30.693 192.225 30.693C191.759 30.693 191.362 30.6412 191.034 30.5377C190.723 30.4341 190.473 30.2961 190.283 30.1235C190.094 29.9337 189.956 29.7267 189.869 29.5024C189.8 29.278 189.766 29.0451 189.766 28.8035C189.766 27.8372 190.396 27.2419 191.655 27.0176C192.691 26.8278 193.51 26.638 194.114 26.4482C194.735 26.2584 195.227 26.1203 195.589 26.0341Z" fill="white"/>
</svg>
