<svg width="104" height="22" viewBox="0 0 104 22" fill="none" xmlns="http://www.w3.org/2000/svg">
<path d="M18.9088 11.7922V0.300537H23.1425V12.2379C23.1425 13.5961 22.9409 14.7845 22.5377 15.8032C22.1557 16.8218 21.6039 17.6813 20.8824 18.3816C20.1608 19.082 19.312 19.6549 18.3358 20.1006C17.3808 20.525 16.3303 20.8328 15.1843 21.0238C14.0595 21.2148 12.8711 21.3103 11.619 21.3103C10.3245 21.3103 9.0936 21.2148 7.9264 21.0238C6.75919 20.8328 5.68748 20.525 4.71127 20.1006C3.75628 19.6549 2.92863 19.082 2.2283 18.3816C1.52798 17.6813 0.976209 16.8218 0.572992 15.8032C0.190997 14.7845 0 13.5961 0 12.2379V0.300537H4.23378V11.7922C4.23378 13.4051 4.55211 14.636 5.18877 15.4848C5.82542 16.3125 6.69552 16.8855 7.79906 17.2038C8.92383 17.5009 10.1971 17.6495 11.619 17.6495C12.9984 17.6495 14.2293 17.5009 15.3116 17.2038C16.4152 16.8855 17.2853 16.3125 17.9219 15.4848C18.5798 14.636 18.9088 13.4051 18.9088 11.7922Z" fill="#FF006C"/>
<path d="M28.0403 20.8964V0.300537H39.914C42.6729 0.300537 44.7632 0.767419 46.1851 1.70118C47.6282 2.61373 48.3497 3.98254 48.3497 5.80763C48.3497 6.97484 48.0632 7.89799 47.4902 8.5771C46.9172 9.23498 46.1002 9.72308 45.0391 10.0414C43.9992 10.3597 42.7684 10.5613 41.3465 10.6462L41.4738 10.4234C42.5137 10.4446 43.4899 10.5189 44.4024 10.6462C45.3362 10.7736 46.1533 11.007 46.8536 11.3466C47.5539 11.6861 48.1057 12.1636 48.5089 12.779C48.9121 13.3733 49.1137 14.1585 49.1137 15.1347C49.1137 16.408 48.7742 17.4691 48.0951 18.318C47.416 19.1456 46.4716 19.7717 45.2619 20.1961C44.0523 20.6205 42.6516 20.854 41.06 20.8964H28.0403ZM32.2741 17.3948H40.6143C41.9513 17.3948 42.9806 17.1826 43.7021 16.7582C44.4237 16.3125 44.7844 15.6122 44.7844 14.6572C44.7844 13.9569 44.5722 13.4475 44.1478 13.1292C43.7233 12.8109 43.161 12.6199 42.4606 12.5562C41.7603 12.4713 41.0069 12.4289 40.2005 12.4289H32.2741V17.3948ZM32.2741 9.02275H39.7548C41.0918 9.02275 42.1211 8.83176 42.8426 8.44976C43.5642 8.04655 43.9249 7.36744 43.9249 6.41246C43.9249 5.45747 43.5642 4.78898 42.8426 4.40698C42.1211 4.00377 41.1661 3.80216 39.9777 3.80216H32.2741V9.02275Z" fill="white"/>
<path d="M61.6646 21.2784C59.6697 21.2784 57.9083 20.9601 56.3803 20.3234C54.8736 19.6868 53.6957 18.7636 52.8469 17.554C51.998 16.3231 51.5736 14.8163 51.5736 13.0337C51.5736 11.2511 51.998 9.7443 52.8469 8.51343C53.6957 7.26133 54.8736 6.31696 56.3803 5.6803C57.9083 5.04364 59.6697 4.72531 61.6646 4.72531C63.6595 4.72531 65.3997 5.04364 66.8852 5.6803C68.3919 6.31696 69.5698 7.26133 70.4186 8.51343C71.2675 9.7443 71.692 11.2511 71.692 13.0337C71.692 14.8163 71.2675 16.3231 70.4186 17.554C69.5698 18.7636 68.3919 19.6868 66.8852 20.3234C65.3997 20.9601 63.6595 21.2784 61.6646 21.2784ZM61.6646 18.0951C62.7681 18.0951 63.7549 17.9041 64.625 17.5221C65.5164 17.1189 66.2167 16.5459 66.726 15.8032C67.2353 15.0392 67.49 14.116 67.49 13.0337C67.49 11.9514 67.2353 11.0282 66.726 10.2642C66.2167 9.47903 65.527 8.88481 64.6569 8.4816C63.7868 8.07838 62.7894 7.87677 61.6646 7.87677C60.561 7.87677 59.5636 8.07838 58.6723 8.4816C57.781 8.88481 57.07 9.46842 56.5395 10.2324C56.0302 10.9964 55.7755 11.9302 55.7755 13.0337C55.7755 14.116 56.0302 15.0392 56.5395 15.8032C57.0488 16.5459 57.7491 17.1189 58.6405 17.5221C59.5318 17.9041 60.5398 18.0951 61.6646 18.0951Z" fill="white"/>
<path d="M73.4194 5.07547H85.7069V8.2906H73.4194V5.07547ZM77.494 0.746198H81.6323V20.8964H77.494V0.746198Z" fill="white"/>
<path d="M87.6994 15.644H91.5194C91.7528 16.3655 92.2303 16.9598 92.9519 17.4266C93.6946 17.8723 94.6602 18.0951 95.8487 18.0951C96.6551 18.0951 97.2811 18.0209 97.7268 17.8723C98.1725 17.7238 98.4802 17.5115 98.65 17.2356C98.8197 16.9385 98.9046 16.6096 98.9046 16.2488C98.9046 15.8032 98.7667 15.4636 98.4908 15.2302C98.2149 14.9755 97.7905 14.7739 97.2175 14.6253C96.6445 14.4768 95.9123 14.3389 95.021 14.2115C94.1297 14.063 93.2702 13.8826 92.4425 13.6704C91.6149 13.4581 90.8827 13.1823 90.2461 12.8427C89.6094 12.4819 89.1001 12.0363 88.7181 11.5057C88.3573 10.954 88.1769 10.2855 88.1769 9.50025C88.1769 8.73626 88.3573 8.05716 88.7181 7.46294C89.1001 6.86873 89.62 6.37001 90.2779 5.9668C90.957 5.56358 91.7422 5.25586 92.6335 5.04364C93.5461 4.83142 94.5223 4.72531 95.5622 4.72531C97.1326 4.72531 98.4377 4.95875 99.4776 5.42564C100.517 5.8713 101.292 6.50795 101.801 7.33561C102.332 8.14204 102.597 9.07581 102.597 10.1369H98.9365C98.7667 9.3517 98.4271 8.78931 97.9178 8.44976C97.4085 8.08899 96.6233 7.9086 95.5622 7.9086C94.5223 7.9086 93.7371 8.06777 93.2065 8.3861C92.676 8.70443 92.4107 9.13948 92.4107 9.69125C92.4107 10.1369 92.5699 10.4871 92.8882 10.7417C93.2278 10.9752 93.7159 11.1662 94.3525 11.3147C95.0104 11.4633 95.8274 11.6224 96.8036 11.7922C97.6313 11.962 98.4165 12.153 99.1593 12.3652C99.9233 12.5774 100.602 12.8533 101.197 13.1929C101.791 13.5112 102.258 13.9462 102.597 14.498C102.958 15.0286 103.138 15.7077 103.138 16.5353C103.138 17.554 102.841 18.4135 102.247 19.1138C101.674 19.8141 100.846 20.3553 99.7641 20.7373C98.6818 21.098 97.3873 21.2784 95.8805 21.2784C94.5435 21.2784 93.3869 21.1405 92.4107 20.8646C91.4557 20.5675 90.6599 20.1961 90.0232 19.7504C89.3866 19.2836 88.8879 18.7955 88.5271 18.2861C88.1875 17.7556 87.9541 17.2569 87.8268 16.79C87.6994 16.3231 87.657 15.9411 87.6994 15.644Z" fill="white"/>
</svg>
